<?xml version="1.0" standalone="no"?>
<!DOCTYPE svg PUBLIC "-//W3C//DTD SVG 20010904//EN"
 "http://www.w3.org/TR/2001/REC-SVG-20010904/DTD/svg10.dtd">
<svg version="1.0" xmlns="http://www.w3.org/2000/svg"
 width="512.000000pt" height="512.000000pt" viewBox="0 0 512.000000 512.000000"
 preserveAspectRatio="xMidYMid meet">
<metadata>
Created by potrace 1.14, written by Peter Selinger 2001-2017
</metadata>
<g transform="translate(0.000000,512.000000) scale(0.100000,-0.100000)"
fill="#000000" stroke="none">
<path d="M2518 5110 c-29 -18 -36 -71 -35 -274 2 -211 -1 -226 -45 -226 -45 0
-172 -72 -229 -130 -56 -57 -113 -155 -125 -219 -4 -19 -13 -31 -23 -31 -9 -1
-108 -1 -221 -2 -113 0 -215 -4 -227 -9 -12 -4 -29 -22 -38 -38 l-16 -31 -97
0 -98 0 -17 35 c-18 39 -14 38 -147 40 -187 3 -321 -72 -394 -220 -34 -70 -42
-131 -41 -308 1 -124 -2 -148 -15 -151 -8 -2 -58 -4 -112 -5 -121 -1 -188 -24
-251 -86 -76 -74 -91 -119 -95 -272 l-4 -133 -96 0 c-104 -1 -124 -8 -141 -51
-11 -30 8 -83 34 -93 9 -3 59 -6 111 -6 l94 0 0 -105 c0 -57 5 -127 11 -155
21 -98 113 -194 212 -221 23 -6 89 -12 147 -13 l104 -1 2 -285 c1 -238 4 -292
18 -330 54 -144 168 -243 311 -267 28 -5 227 -8 443 -8 l392 1 0 -102 c0 -100
0 -102 -25 -108 -34 -9 -47 -39 -50 -110 l-1 -61 -560 -1 c-307 -1 -575 -4
-596 -7 -169 -29 -318 -156 -381 -325 -19 -52 -21 -82 -25 -355 l-4 -297 -88
0 c-49 0 -100 -5 -114 -11 -50 -23 -51 -105 0 -128 39 -17 4933 -15 4956 3 25
19 37 57 26 85 -15 43 -37 50 -140 51 l-98 0 -1 273 c-1 305 -1 304 -34 394
-56 148 -171 252 -330 299 -54 16 -116 17 -625 18 l-564 1 -1 180 c-1 99 0
185 2 190 2 7 122 10 351 10 191 0 370 3 397 8 143 24 258 123 311 267 13 37
17 95 19 325 2 154 3 283 4 287 1 3 38 5 84 4 158 -3 250 30 319 117 52 67 68
127 68 264 l0 113 94 0 c52 0 102 3 111 6 26 10 45 63 34 93 -17 43 -37 50
-141 51 l-96 0 -4 133 c-4 150 -20 199 -89 268 -71 71 -135 91 -299 93 l-84 1
-2 185 c-1 184 -1 185 -32 253 -47 104 -107 165 -204 210 -67 31 -125 35 -599
35 -259 0 -473 3 -476 6 -4 4 -8 15 -10 26 -5 33 -51 128 -80 167 -61 81 -176
163 -248 177 -11 2 -32 7 -46 11 l-27 7 1 226 0 226 -27 23 c-29 24 -60 29
-88 13z"/>
</g>
</svg>
